# Blender v2.64 (sub 0) OBJ File: 'anvil_EW.blend'
# www.blender.org
o Cube
v 0.342500 0.650000 0.342500
v 0.342500 0.650000 0.657500
v 0.657497 0.650000 0.342500
v 0.657497 0.650000 0.657500
v 0.280000 0.650000 0.375000
v 0.280000 0.650000 0.625000
v 0.342500 0.400000 0.657500
v 0.342500 0.400000 0.342500
v 0.280000 0.450000 0.625000
v 0.280000 0.450000 0.375000
v 0.000000 0.650000 0.500000
v 0.719997 0.650000 0.625000
v 0.719997 0.650000 0.375000
v 0.657497 0.400000 0.342500
v 0.657497 0.400000 0.657500
v 0.719997 0.450000 0.375000
v 0.719997 0.450000 0.625000
v 0.999997 0.650000 0.500000
v 0.311000 -0.000001 0.689000
v 0.311000 0.000001 0.311000
v 0.688996 -0.000001 0.311000
v 0.688997 0.000001 0.689000
v 0.625997 0.400000 0.626000
v 0.625997 0.400000 0.374000
v 0.374000 0.400000 0.374000
v 0.374000 0.400000 0.626000
v 0.625997 0.300000 0.626000
v 0.625997 0.300000 0.374000
v 0.374000 0.300000 0.374000
v 0.374000 0.300000 0.626000
v 0.311000 0.199999 0.689000
v 0.311000 0.200001 0.311000
v 0.688996 0.199999 0.311000
v 0.688997 0.200001 0.689000
vt 0.390625 0.980469
vt 0.398438 0.980469
vt 0.398438 0.945312
vt 0.390625 0.949219
vt 0.386719 0.960938
vt 0.382812 0.968750
vt 0.429688 0.968750
vt 0.421875 0.960938
vt 0.378906 0.968750
vt 0.425781 0.968750
vt 0.382812 0.953125
vt 0.382812 0.996094
vt 0.425781 0.996094
vt 0.425781 0.953125
vt 0.402344 0.988281
vt 0.394531 0.988281
vt 0.394531 0.960938
vt 0.402344 0.953125
vt 0.406250 0.949219
vt 0.425781 0.988281
vt 0.390625 0.988281
vt 0.398438 0.949219
vt 0.382812 0.988281
vt 0.417969 0.988281
vt 0.382812 0.992188
vt 0.421875 0.964844
vt 0.421875 0.992188
vt 0.386719 0.988281
vt 0.425781 0.960938
vt 0.410156 0.988281
vt 0.410156 0.953125
vt 0.417969 0.957031
vt 0.382812 0.964844
vt 0.386719 0.972656
vt 0.421875 0.972656
vt 0.429688 0.964844
vt 0.421875 0.968750
vt 0.386719 0.968750
vt 0.382812 0.960938
vt 0.406250 0.988281
vt 0.414062 0.988281
vt 0.414062 0.960938
vt 0.406250 0.953125
vt 0.433594 0.949219
vt 0.402344 0.996094
vt 0.421875 0.957031
vt 0.382812 0.957031
vt 0.425781 0.984375
vt 0.386719 0.957031
vt 0.386719 0.984375
vt 0.421875 0.988281
vt 0.425781 0.992188
vt 0.378906 0.992188
vt 0.378906 0.957031
vt 0.425781 0.957031
vt 0.429688 0.988281
vt 0.429688 0.953125
vt 0.398438 0.968750
vt 0.398438 0.964844
vt 0.382812 0.980469
vt 0.406250 0.980469
vt 0.406250 0.976562
vt 0.382812 0.976562
vt 0.398438 0.953125
vt 0.421875 0.953125
vt 0.398438 0.957031
vt 0.421875 0.980469
vt 0.398438 0.976562
vt 0.421875 0.976562
vt 0.375000 0.812500
vt 0.437500 0.812500
vt 0.437500 0.750000
vt 0.375000 0.750000
vt 0.394531 0.984375
vt 0.417969 0.984375
vt 0.417969 0.976562
vt 0.394531 0.976562
vt 0.414062 0.980469
vt 0.390625 0.972656
vt 0.414062 0.972656
vt 0.394531 0.964844
vt 0.417969 0.964844
vt 0.394531 0.957031
vt 0.406250 0.957031
vt 0.406250 0.972656
vt 0.433594 0.972656
vt 0.433594 0.957031
vt 0.437500 0.785156
vt 0.375000 0.785156
vt 0.417969 0.972656
vt 0.414062 0.957031
vt 0.414062 0.964844
vt 0.386719 0.964844
vt 0.386719 0.980469
vn 0.461352 0.000000 -0.887217
vn 0.000000 -1.000000 -0.000000
vn 0.624695 0.780869 0.000002
vn 0.461354 0.000000 0.887216
vn 0.000000 1.000000 -0.000000
vn -0.581238 -0.813733 -0.000002
vn -0.407651 0.000000 0.913138
vn 0.407651 0.000000 0.913138
vn -0.461352 0.000000 0.887217
vn -0.624695 0.780868 -0.000001
vn -0.461355 -0.000000 -0.887216
vn 0.581238 -0.813734 0.000001
vn 0.407650 0.000000 -0.913138
vn -0.407652 -0.000000 -0.913137
vn -0.000000 0.000000 1.000000
vn 0.000001 0.000000 -1.000000
vn -0.000000 1.000000 -0.000002
vn 0.000000 1.000000 0.000002
vn 0.000002 1.000000 0.000000
vn -0.000002 1.000000 -0.000000
vn 1.000000 -0.000000 0.000000
vn -1.000000 0.000000 0.000001
vn 0.000000 0.000000 -1.000000
vn -0.000001 0.000000 1.000000
vn 0.000002 0.533038 -0.846092
vn -1.000000 -0.000000 0.000000
vn 1.000000 0.000000 -0.000002
vn -0.846094 0.533034 0.000001
vn -0.000002 0.533038 0.846092
vn 0.846094 0.533034 -0.000003
s off
f 6/1/1 2/2/1 7/3/1
f 6/1/1 7/3/1 9/4/1
f 5/5/2 1/6/2 2/7/2
f 5/5/2 2/7/2 6/8/2
f 8/9/3 10/5/3 9/8/3
f 8/9/3 9/8/3 7/10/3
f 1/11/2 3/12/2 4/13/2
f 1/11/2 4/13/2 2/14/2
f 1/15/4 5/16/4 10/17/4
f 1/15/4 10/17/4 8/18/4
f 11/19/5 6/20/5 5/21/5
f 11/22/6 10/23/6 9/24/6
f 11/25/7 9/26/7 6/27/7
f 11/28/8 10/29/8 5/20/8
f 13/24/9 3/30/9 14/31/9
f 13/24/9 14/31/9 16/32/9
f 3/33/2 13/34/2 12/35/2
f 3/33/2 12/35/2 4/36/2
f 15/29/10 17/37/10 16/38/10
f 15/29/10 16/38/10 14/39/10
f 4/40/11 12/41/11 17/42/11
f 4/40/11 17/42/11 15/43/11
f 18/41/5 13/22/5 12/44/5
f 18/45/12 17/46/12 16/47/12
f 18/48/13 16/49/13 13/50/13
f 18/51/14 17/39/14 12/23/14
f 3/52/15 1/53/15 8/54/15
f 3/52/15 8/54/15 14/55/15
f 2/23/16 4/56/16 15/57/16
f 2/23/16 15/57/16 7/11/16
f 15/37/17 14/58/17 24/59/17
f 15/37/17 24/59/17 23/26/17
f 8/60/18 7/61/18 26/62/18
f 8/60/18 26/62/18 25/63/18
f 25/64/19 24/65/19 14/46/19
f 25/64/19 14/46/19 8/66/19
f 7/67/20 15/2/20 23/68/20
f 7/67/20 23/68/20 26/69/20
f 21/70/2 22/71/2 19/72/2
f 21/70/2 19/72/2 20/73/2
f 25/74/21 26/75/21 30/76/21
f 25/74/21 30/76/21 29/77/21
f 23/78/22 24/1/22 28/79/22
f 23/78/22 28/79/22 27/80/22
f 26/81/23 23/82/23 27/32/23
f 26/81/23 27/32/23 30/83/23
f 29/83/24 28/32/24 24/82/24
f 29/83/24 24/82/24 25/81/24
f 32/84/25 29/85/25 28/86/25
f 32/84/25 28/86/25 33/87/25
f 19/73/15 22/72/15 34/88/15
f 19/73/15 34/88/15 31/89/15
f 20/73/26 19/72/26 31/88/26
f 20/73/26 31/88/26 32/89/26
f 22/72/27 21/73/27 33/89/27
f 22/72/27 33/89/27 34/88/27
f 32/89/16 33/88/16 21/72/16
f 32/89/16 21/72/16 20/73/16
f 29/21/28 32/79/28 31/90/28
f 29/21/28 31/90/28 30/24/28
f 30/34/29 31/49/29 34/91/29
f 30/34/29 34/91/29 27/80/29
f 27/78/30 34/92/30 33/93/30
f 27/78/30 33/93/30 28/94/30
