# Blender v2.64 (sub 0) OBJ File: 'bed.blend'
# www.blender.org
o Cube
v 0.187500 0.187000 1.000000
v 0.000000 0.000000 1.000000
v 2.000000 0.563000 1.000000
v 0.000000 0.563000 1.000000
v 0.000000 0.563000 0.000000
v 2.000000 0.563000 0.000000
v 0.000000 0.000000 0.000000
v 0.187500 0.187000 0.000000
v 0.187500 0.000000 0.000000
v 0.000000 0.000000 0.000000
v 0.187500 0.187000 0.000000
v 0.187500 0.000000 0.000000
v 0.187500 0.000000 1.000000
v 1.812500 0.000000 1.000000
v 1.812500 0.187000 1.000000
v 1.812500 0.187000 0.000000
v 1.812500 0.000000 0.000000
v 2.000000 0.000000 0.000000
v 2.000000 0.000000 1.000000
v 0.000000 0.000000 0.187500
v 0.000000 0.187500 0.187500
v 0.000000 0.000000 0.812500
v 0.000000 0.187500 0.812500
v 2.000000 0.000000 0.187500
v 2.000000 0.187500 0.187500
v 2.000000 0.000000 0.812500
v 2.000000 0.187500 0.812500
v 1.000000 0.187500 1.000000
v 0.000000 0.187500 1.000000
v 0.000000 0.187500 0.000000
v 1.000000 0.187500 0.000000
v 2.000000 0.187500 1.000000
v 2.000000 0.187500 0.000000
vt 0.000000 0.000000
vt 0.500000 0.410156
vt 0.488281 0.386719
vt 0.500000 0.375000
vt 0.375000 0.410156
vt 0.386719 0.386719
vt 0.375000 0.375000
vt 0.488281 0.375000
vt 0.386719 0.375000
vt 0.363281 0.386719
vt 0.312500 0.410156
vt 0.324219 0.386719
vt 0.312500 0.375000
vt 0.363281 0.375000
vt 0.324219 0.375000
vt 0.511719 0.386719
vt 0.562500 0.410156
vt 0.550781 0.386719
vt 0.562500 0.375000
vt 0.511719 0.375000
vt 0.550781 0.375000
vt 0.500000 0.437500
vt 0.500000 0.500000
vt 0.375000 0.500000
vt 0.375000 0.437500
vt 0.312500 0.937500
vt 0.250000 0.937500
vt 0.250000 1.000000
vt 0.312500 1.000000
vn 0.000000 0.000000 0.000000
vn 0.000001 0.000000 -1.000000
vn 0.000000 -0.000000 -1.000000
vn -0.000001 0.000001 -1.000000
vn 0.000000 0.000002 -1.000000
vn 1.000000 -0.000000 -0.000000
vn 1.000000 0.000000 -0.000001
vn 1.000000 0.000000 0.000001
vn 1.000000 -0.000001 0.000001
vn 1.000000 -0.000001 0.000000
vn 1.000000 -0.000001 -0.000001
vn 0.000000 1.000000 0.000000
s off
f 11/1/1 12/1/1 9/1/1
f 11/1/1 9/1/1 8/1/1
f 10/1/1 12/1/1 9/1/1
f 10/1/1 9/1/1 7/1/1
f 4/2/2 1/3/2 2/4/2
f 3/5/3 1/3/3 4/2/3
f 15/6/3 1/3/3 3/5/3
f 3/5/4 19/7/4 15/6/4
f 2/4/5 1/3/5 13/8/5
f 19/7/5 14/9/5 15/6/5
f 10/4/2 5/2/2 11/3/2
f 5/2/3 6/5/3 11/3/3
f 6/5/3 16/6/3 11/3/3
f 6/5/4 18/7/4 16/6/4
f 10/4/5 11/3/5 12/8/5
f 18/7/5 17/9/5 16/6/5
f 6/5/6 25/10/6 18/7/6
f 6/5/6 3/11/6 25/10/6
f 3/11/6 27/12/6 25/10/6
f 3/11/6 19/13/6 27/12/6
f 25/10/7 24/14/7 18/7/7
f 19/13/8 26/15/8 27/12/8
f 5/2/9 21/16/9 10/4/9
f 5/2/10 4/17/10 21/16/10
f 4/17/10 23/18/10 21/16/10
f 4/17/11 2/19/11 23/18/11
f 21/16/6 20/20/6 10/4/6
f 2/19/6 22/21/6 23/18/6
f 5/22/12 4/23/12 3/24/12
f 5/22/12 3/24/12 6/25/12
f 30/26/12 29/27/12 28/28/12
f 30/26/12 28/28/12 31/29/12
f 32/29/12 33/28/12 31/27/12
f 32/29/12 31/27/12 28/26/12
