# Blender v2.64 (sub 0) OBJ File: 'bed_W.blend'
# www.blender.org
o Cube
v 1.000003 0.187000 1.812498
v 1.000003 0.000000 1.999998
v 0.999997 0.563000 -0.000002
v 1.000003 0.563000 1.999998
v 0.000003 0.563000 2.000001
v -0.000003 0.563000 0.000002
v 0.000003 0.000000 2.000002
v 0.000003 0.187000 1.812502
v 0.000003 0.000000 1.812502
v 0.000003 0.000000 2.000002
v 0.000003 0.187000 1.812502
v 0.000003 0.000000 1.812502
v 1.000003 0.000000 1.812498
v 0.999997 0.000000 0.187498
v 0.999997 0.187000 0.187498
v -0.000002 0.187000 0.187502
v -0.000003 0.000000 0.187502
v -0.000003 0.000000 0.000002
v 0.999997 0.000000 -0.000002
v 0.187503 0.000000 2.000001
v 0.187503 0.187500 2.000001
v 0.812503 0.000000 1.999999
v 0.812503 0.187500 1.999999
v 0.187497 0.000000 0.000001
v 0.187497 0.187500 0.000001
v 0.812497 0.000000 -0.000001
v 0.812497 0.187500 -0.000001
v 1.000000 0.187500 0.999998
v 1.000003 0.187500 1.999998
v 0.000003 0.187500 2.000001
v 0.000000 0.187500 1.000002
v 0.999997 0.187500 -0.000002
v -0.000003 0.187500 0.000002
vt 0.500000 0.410156
vt 0.488281 0.386719
vt 0.500000 0.375000
vt 0.375000 0.410156
vt 0.386719 0.386719
vt 0.375000 0.375000
vt 0.488281 0.375000
vt 0.386719 0.375000
vt 0.363281 0.386719
vt 0.312500 0.410156
vt 0.324219 0.386719
vt 0.312500 0.375000
vt 0.363281 0.375000
vt 0.324219 0.375000
vt 0.511719 0.386719
vt 0.562500 0.410156
vt 0.550781 0.386719
vt 0.562500 0.375000
vt 0.511719 0.375000
vt 0.550781 0.375000
vt 0.500000 0.437500
vt 0.500000 0.500000
vt 0.375000 0.500000
vt 0.375000 0.437500
vt 0.312500 0.937500
vt 0.250000 0.937500
vt 0.250000 1.000000
vt 0.312500 1.000000
vt 0.000000 0.000000
vn -1.000000 0.000000 0.000002
vn -1.000000 -0.000000 0.000003
vn -1.000000 0.000001 0.000004
vn -1.000000 0.000001 0.000003
vn -1.000000 0.000002 0.000003
vn -0.000004 -0.000000 -1.000000
vn -0.000003 -0.000000 -1.000000
vn -0.000003 -0.000001 -1.000000
vn -0.000004 -0.000001 -1.000000
vn 0.000000 1.000000 -0.000000
vn 0.000000 0.000000 0.000000
s off
f 4/1/1 1/2/1 2/3/1
f 3/4/2 1/2/2 4/1/2
f 15/5/2 1/2/2 3/4/2
f 3/4/3 19/6/3 15/5/3
f 2/3/4 1/2/4 13/7/4
f 19/6/5 14/8/5 15/5/5
f 10/3/1 5/1/1 11/2/1
f 5/1/2 6/4/2 11/2/2
f 6/4/2 16/5/2 11/2/2
f 6/4/3 18/6/3 16/5/3
f 10/3/5 11/2/5 12/7/5
f 18/6/5 17/8/5 16/5/5
f 6/4/6 25/9/6 18/6/6
f 6/4/7 3/10/7 25/9/7
f 3/10/7 27/11/7 25/9/7
f 3/10/7 19/12/7 27/11/7
f 25/9/6 24/13/6 18/6/6
f 19/12/7 26/14/7 27/11/7
f 5/1/8 21/15/8 10/3/8
f 5/1/8 4/16/8 21/15/8
f 4/16/8 23/17/8 21/15/8
f 4/16/9 2/18/9 23/17/9
f 21/15/6 20/19/6 10/3/6
f 2/18/7 22/20/7 23/17/7
f 5/21/10 4/22/10 3/23/10
f 5/21/10 3/23/10 6/24/10
f 30/25/10 29/26/10 28/27/10
f 30/25/10 28/27/10 31/28/10
f 32/28/10 33/27/10 31/26/10
f 32/28/10 31/26/10 28/25/10
f 11/29/11 12/29/11 9/29/11
f 11/29/11 9/29/11 8/29/11
f 10/29/11 12/29/11 9/29/11
f 10/29/11 9/29/11 7/29/11
